<svg xmlns="http://www.w3.org/2000/svg" viewBox="0 0 512 512" role="img" aria-label="Rivalry app icon">
  <defs>
    <linearGradient id="bg" x1="0" y1="0" x2="1" y2="1">
      <stop offset="0%" stop-color="#111827"/>
      <stop offset="100%" stop-color="#1f2937"/>
    </linearGradient>
    <linearGradient id="accent" x1="0" y1="0" x2="1" y2="1">
      <stop offset="0%" stop-color="#c8102e"/>
      <stop offset="100%" stop-color="#ef4444"/>
    </linearGradient>
  </defs>

  <rect width="512" height="512" rx="120" fill="url(#bg)"/>

  <rect x="76" y="96" width="360" height="260" rx="42" fill="#f8fafc" opacity="0.96"/>
  <rect x="96" y="116" width="320" height="220" rx="28" fill="#ffffff"/>

  <rect x="116" y="146" width="116" height="160" rx="24" fill="#111827"/>
  <rect x="280" y="146" width="116" height="160" rx="24" fill="#111827"/>

  <text x="174" y="248" text-anchor="middle" font-family="Arial, Helvetica, sans-serif" font-size="116" font-weight="700" fill="#ffffff">2</text>
  <text x="338" y="248" text-anchor="middle" font-family="Arial, Helvetica, sans-serif" font-size="116" font-weight="700" fill="#ffffff">1</text>

  <circle cx="256" cy="226" r="30" fill="url(#accent)"/>
  <text x="256" y="238" text-anchor="middle" font-family="Arial, Helvetica, sans-serif" font-size="28" font-weight="800" fill="#ffffff">VS</text>

  <g transform="translate(0 8)">
    <rect x="108" y="378" width="296" height="26" rx="13" fill="#d0d5dd" opacity="0.55"/>
    <circle cx="256" cy="390" r="32" fill="#111827" stroke="#ffffff" stroke-width="10"/>
    <path d="M182 422c44-26 104-26 148 0" fill="none" stroke="#c8102e" stroke-width="16" stroke-linecap="round"/>
    <path d="M170 454l48-22" fill="none" stroke="#ffffff" stroke-width="14" stroke-linecap="round"/>
    <path d="M342 454l-48-22" fill="none" stroke="#ffffff" stroke-width="14" stroke-linecap="round"/>
  </g>
</svg>