<svg xmlns="http://www.w3.org/2000/svg" viewBox="0 0 512 512" role="img" aria-label="Canes Rivalry icon">
  <defs>
    <linearGradient id="bg" x1="0" y1="0" x2="0.8" y2="1">
      <stop offset="0%" stop-color="#ffffff"/>
      <stop offset="100%" stop-color="#f5f7fa"/>
    </linearGradient>
    <linearGradient id="puck" x1="0" y1="0" x2="1" y2="1">
      <stop offset="0%" stop-color="#1f2937"/>
      <stop offset="100%" stop-color="#111827"/>
    </linearGradient>
  </defs>

  <rect width="512" height="512" rx="120" fill="url(#bg)"/>

  <g fill="none" stroke-linecap="round" stroke-linejoin="round">
    <path d="M150 178 L238 320" stroke="#171717" stroke-width="18"/>
    <path d="M362 178 L274 320" stroke="#171717" stroke-width="18"/>
    <path d="M138 160 L166 202" stroke="#c8102e" stroke-width="22"/>
    <path d="M374 160 L346 202" stroke="#c8102e" stroke-width="22"/>

    <path d="M112 352 C132 330 166 326 206 334" stroke="#171717" stroke-width="22"/>
    <path d="M400 352 C380 330 346 326 306 334" stroke="#171717" stroke-width="22"/>
    <path d="M108 356 C142 350 176 350 216 358" stroke="#50555f" stroke-width="10"/>
    <path d="M404 356 C370 350 336 350 296 358" stroke="#50555f" stroke-width="10"/>
  </g>

  <path d="M256 118 L269 146 L300 149 L276 169 L283 199 L256 183 L229 199 L236 169 L212 149 L243 146 Z" fill="#c8102e"/>

  <text x="256" y="248" text-anchor="middle" font-family="Arial, Helvetica, sans-serif" font-size="58" font-weight="800" fill="#c8102e" letter-spacing="2">CANES</text>
  <text x="256" y="308" text-anchor="middle" font-family="Arial, Helvetica, sans-serif" font-size="58" font-weight="800" fill="#111827" letter-spacing="1">RIVALRY</text>

  <ellipse cx="256" cy="390" rx="56" ry="16" fill="#d2d6dc" opacity="0.55"/>
  <ellipse cx="256" cy="382" rx="46" ry="14" fill="#1f2937"/>
  <ellipse cx="256" cy="374" rx="46" ry="16" fill="url(#puck)"/>
  <ellipse cx="256" cy="366" rx="44" ry="14" fill="#2d3748"/>

  <path d="M202 412 C220 404 292 404 310 412" fill="none" stroke="#c8102e" stroke-width="6" stroke-linecap="round" opacity="0.85"/>
</svg>